<?xml version="1.0" encoding="utf-8" standalone="no"?>
<!DOCTYPE svg PUBLIC "-//W3C//DTD SVG 1.1//EN"
  "http://www.w3.org/Graphics/SVG/1.1/DTD/svg11.dtd">
<svg xmlns:xlink="http://www.w3.org/1999/xlink" width="403.2pt" height="288pt" viewBox="0 0 403.2 288" xmlns="http://www.w3.org/2000/svg" version="1.1">
 <metadata>
  <rdf:RDF xmlns:dc="http://purl.org/dc/elements/1.1/" xmlns:cc="http://creativecommons.org/ns#" xmlns:rdf="http://www.w3.org/1999/02/22-rdf-syntax-ns#">
   <cc:Work>
    <dc:type rdf:resource="http://purl.org/dc/dcmitype/StillImage"/>
    <dc:format>image/svg+xml</dc:format>
    <dc:creator>
     <cc:Agent>
      <dc:title>Matplotlib v3.11.2, https://matplotlib.org/</dc:title>
     </cc:Agent>
    </dc:creator>
   </cc:Work>
  </rdf:RDF>
 </metadata>
 <defs>
  <style type="text/css">*{stroke-linejoin: round; stroke-linecap: butt}</style>
 </defs>
 <g id="figure_1">
  <g id="patch_1">
   <path d="M 0 288 
L 403.2 288 
L 403.2 0 
L 0 0 
z
" style="fill: #ffffff"/>
  </g>
  <g id="axes_1">
   <g id="patch_2">
    <path d="M 48.8 217.316056 
L 391.32 217.316056 
L 391.32 27.24 
L 48.8 27.24 
z
" style="fill: #ffffff"/>
   </g>
   <g id="matplotlib.axis_1">
    <g id="xtick_1">
     <g id="line2d_1">
      <path d="M 59.50375 217.316056 
L 59.50375 27.24 
" clip-path="url(#p33e730357b)" style="fill: none; stroke: #e5e7eb; stroke-width: 0.8; stroke-linecap: square"/>
     </g>
     <g id="line2d_2">
      <defs>
       <path id="m78effe78e8" d="M 0 0 
L 0 3.5 
" style="stroke: #374151; stroke-width: 0.8"/>
      </defs>
      <g>
       <use xlink:href="#m78effe78e8" x="59.50375" y="217.316056" style="fill: #374151; stroke: #374151; stroke-width: 0.8"/>
      </g>
     </g>
     <g id="text_1">
      <!-- 30 -->
      <g style="fill: #374151" transform="translate(52.505 232.673478) scale(0.11 -0.11)">
       <defs>
        <path id="DejaVuSans-16" d="M 2597 2516 
Q 3050 2419 3304 2112 
Q 3559 1806 3559 1356 
Q 3559 666 3084 287 
Q 2609 -91 1734 -91 
Q 1441 -91 1130 -33 
Q 819 25 488 141 
L 488 750 
Q 750 597 1062 519 
Q 1375 441 1716 441 
Q 2309 441 2620 675 
Q 2931 909 2931 1356 
Q 2931 1769 2642 2001 
Q 2353 2234 1838 2234 
L 1294 2234 
L 1294 2753 
L 1863 2753 
Q 2328 2753 2575 2939 
Q 2822 3125 2822 3475 
Q 2822 3834 2567 4026 
Q 2313 4219 1838 4219 
Q 1578 4219 1281 4162 
Q 984 4106 628 3988 
L 628 4550 
Q 988 4650 1302 4700 
Q 1616 4750 1894 4750 
Q 2613 4750 3031 4423 
Q 3450 4097 3450 3541 
Q 3450 3153 3228 2886 
Q 3006 2619 2597 2516 
z
" transform="scale(0.015625)"/>
        <path id="DejaVuSans-13" d="M 2034 4250 
Q 1547 4250 1301 3770 
Q 1056 3291 1056 2328 
Q 1056 1369 1301 889 
Q 1547 409 2034 409 
Q 2525 409 2770 889 
Q 3016 1369 3016 2328 
Q 3016 3291 2770 3770 
Q 2525 4250 2034 4250 
z
M 2034 4750 
Q 2819 4750 3233 4129 
Q 3647 3509 3647 2328 
Q 3647 1150 3233 529 
Q 2819 -91 2034 -91 
Q 1250 -91 836 529 
Q 422 1150 422 2328 
Q 422 3509 836 4129 
Q 1250 4750 2034 4750 
z
" transform="scale(0.015625)"/>
       </defs>
       <use xlink:href="#DejaVuSans-16"/>
       <use xlink:href="#DejaVuSans-13" transform="translate(63.625 0)"/>
      </g>
     </g>
    </g>
    <g id="xtick_2">
     <g id="line2d_3">
      <path d="M 113.0225 217.316056 
L 113.0225 27.24 
" clip-path="url(#p33e730357b)" style="fill: none; stroke: #e5e7eb; stroke-width: 0.8; stroke-linecap: square"/>
     </g>
     <g id="line2d_4">
      <g>
       <use xlink:href="#m78effe78e8" x="113.0225" y="217.316056" style="fill: #374151; stroke: #374151; stroke-width: 0.8"/>
      </g>
     </g>
     <g id="text_2">
      <!-- 40 -->
      <g style="fill: #374151" transform="translate(106.02375 232.673478) scale(0.11 -0.11)">
       <defs>
        <path id="DejaVuSans-17" d="M 2419 4116 
L 825 1625 
L 2419 1625 
L 2419 4116 
z
M 2253 4666 
L 3047 4666 
L 3047 1625 
L 3713 1625 
L 3713 1100 
L 3047 1100 
L 3047 0 
L 2419 0 
L 2419 1100 
L 313 1100 
L 313 1709 
L 2253 4666 
z
" transform="scale(0.015625)"/>
       </defs>
       <use xlink:href="#DejaVuSans-17"/>
       <use xlink:href="#DejaVuSans-13" transform="translate(63.625 0)"/>
      </g>
     </g>
    </g>
    <g id="xtick_3">
     <g id="line2d_5">
      <path d="M 166.54125 217.316056 
L 166.54125 27.24 
" clip-path="url(#p33e730357b)" style="fill: none; stroke: #e5e7eb; stroke-width: 0.8; stroke-linecap: square"/>
     </g>
     <g id="line2d_6">
      <g>
       <use xlink:href="#m78effe78e8" x="166.54125" y="217.316056" style="fill: #374151; stroke: #374151; stroke-width: 0.8"/>
      </g>
     </g>
     <g id="text_3">
      <!-- 50 -->
      <g style="fill: #374151" transform="translate(159.5425 232.673478) scale(0.11 -0.11)">
       <defs>
        <path id="DejaVuSans-18" d="M 691 4666 
L 3169 4666 
L 3169 4134 
L 1269 4134 
L 1269 2991 
Q 1406 3038 1543 3061 
Q 1681 3084 1819 3084 
Q 2600 3084 3056 2656 
Q 3513 2228 3513 1497 
Q 3513 744 3044 326 
Q 2575 -91 1722 -91 
Q 1428 -91 1123 -41 
Q 819 9 494 109 
L 494 744 
Q 775 591 1075 516 
Q 1375 441 1709 441 
Q 2250 441 2565 725 
Q 2881 1009 2881 1497 
Q 2881 1984 2565 2268 
Q 2250 2553 1709 2553 
Q 1456 2553 1204 2497 
Q 953 2441 691 2322 
L 691 4666 
z
" transform="scale(0.015625)"/>
       </defs>
       <use xlink:href="#DejaVuSans-18"/>
       <use xlink:href="#DejaVuSans-13" transform="translate(63.625 0)"/>
      </g>
     </g>
    </g>
    <g id="xtick_4">
     <g id="line2d_7">
      <path d="M 220.06 217.316056 
L 220.06 27.24 
" clip-path="url(#p33e730357b)" style="fill: none; stroke: #e5e7eb; stroke-width: 0.8; stroke-linecap: square"/>
     </g>
     <g id="line2d_8">
      <g>
       <use xlink:href="#m78effe78e8" x="220.06" y="217.316056" style="fill: #374151; stroke: #374151; stroke-width: 0.8"/>
      </g>
     </g>
     <g id="text_4">
      <!-- 60 -->
      <g style="fill: #374151" transform="translate(213.06125 232.673478) scale(0.11 -0.11)">
       <defs>
        <path id="DejaVuSans-19" d="M 2113 2584 
Q 1688 2584 1439 2293 
Q 1191 2003 1191 1497 
Q 1191 994 1439 701 
Q 1688 409 2113 409 
Q 2538 409 2786 701 
Q 3034 994 3034 1497 
Q 3034 2003 2786 2293 
Q 2538 2584 2113 2584 
z
M 3366 4563 
L 3366 3988 
Q 3128 4100 2886 4159 
Q 2644 4219 2406 4219 
Q 1781 4219 1451 3797 
Q 1122 3375 1075 2522 
Q 1259 2794 1537 2939 
Q 1816 3084 2150 3084 
Q 2853 3084 3261 2657 
Q 3669 2231 3669 1497 
Q 3669 778 3244 343 
Q 2819 -91 2113 -91 
Q 1303 -91 875 529 
Q 447 1150 447 2328 
Q 447 3434 972 4092 
Q 1497 4750 2381 4750 
Q 2619 4750 2861 4703 
Q 3103 4656 3366 4563 
z
" transform="scale(0.015625)"/>
       </defs>
       <use xlink:href="#DejaVuSans-19"/>
       <use xlink:href="#DejaVuSans-13" transform="translate(63.625 0)"/>
      </g>
     </g>
    </g>
    <g id="xtick_5">
     <g id="line2d_9">
      <path d="M 273.57875 217.316056 
L 273.57875 27.24 
" clip-path="url(#p33e730357b)" style="fill: none; stroke: #e5e7eb; stroke-width: 0.8; stroke-linecap: square"/>
     </g>
     <g id="line2d_10">
      <g>
       <use xlink:href="#m78effe78e8" x="273.57875" y="217.316056" style="fill: #374151; stroke: #374151; stroke-width: 0.8"/>
      </g>
     </g>
     <g id="text_5">
      <!-- 70 -->
      <g style="fill: #374151" transform="translate(266.58 232.673478) scale(0.11 -0.11)">
       <defs>
        <path id="DejaVuSans-1a" d="M 525 4666 
L 3525 4666 
L 3525 4397 
L 1831 0 
L 1172 0 
L 2766 4134 
L 525 4134 
L 525 4666 
z
" transform="scale(0.015625)"/>
       </defs>
       <use xlink:href="#DejaVuSans-1a"/>
       <use xlink:href="#DejaVuSans-13" transform="translate(63.625 0)"/>
      </g>
     </g>
    </g>
    <g id="xtick_6">
     <g id="line2d_11">
      <path d="M 327.0975 217.316056 
L 327.0975 27.24 
" clip-path="url(#p33e730357b)" style="fill: none; stroke: #e5e7eb; stroke-width: 0.8; stroke-linecap: square"/>
     </g>
     <g id="line2d_12">
      <g>
       <use xlink:href="#m78effe78e8" x="327.0975" y="217.316056" style="fill: #374151; stroke: #374151; stroke-width: 0.8"/>
      </g>
     </g>
     <g id="text_6">
      <!-- 80 -->
      <g style="fill: #374151" transform="translate(320.09875 232.673478) scale(0.11 -0.11)">
       <defs>
        <path id="DejaVuSans-1b" d="M 2034 2216 
Q 1584 2216 1326 1975 
Q 1069 1734 1069 1313 
Q 1069 891 1326 650 
Q 1584 409 2034 409 
Q 2484 409 2743 651 
Q 3003 894 3003 1313 
Q 3003 1734 2745 1975 
Q 2488 2216 2034 2216 
z
M 1403 2484 
Q 997 2584 770 2862 
Q 544 3141 544 3541 
Q 544 4100 942 4425 
Q 1341 4750 2034 4750 
Q 2731 4750 3128 4425 
Q 3525 4100 3525 3541 
Q 3525 3141 3298 2862 
Q 3072 2584 2669 2484 
Q 3125 2378 3379 2068 
Q 3634 1759 3634 1313 
Q 3634 634 3220 271 
Q 2806 -91 2034 -91 
Q 1263 -91 848 271 
Q 434 634 434 1313 
Q 434 1759 690 2068 
Q 947 2378 1403 2484 
z
M 1172 3481 
Q 1172 3119 1398 2916 
Q 1625 2713 2034 2713 
Q 2441 2713 2670 2916 
Q 2900 3119 2900 3481 
Q 2900 3844 2670 4047 
Q 2441 4250 2034 4250 
Q 1625 4250 1398 4047 
Q 1172 3844 1172 3481 
z
" transform="scale(0.015625)"/>
       </defs>
       <use xlink:href="#DejaVuSans-1b"/>
       <use xlink:href="#DejaVuSans-13" transform="translate(63.625 0)"/>
      </g>
     </g>
    </g>
    <g id="xtick_7">
     <g id="line2d_13">
      <path d="M 380.61625 217.316056 
L 380.61625 27.24 
" clip-path="url(#p33e730357b)" style="fill: none; stroke: #e5e7eb; stroke-width: 0.8; stroke-linecap: square"/>
     </g>
     <g id="line2d_14">
      <g>
       <use xlink:href="#m78effe78e8" x="380.61625" y="217.316056" style="fill: #374151; stroke: #374151; stroke-width: 0.8"/>
      </g>
     </g>
     <g id="text_7">
      <!-- 90 -->
      <g style="fill: #374151" transform="translate(373.6175 232.673478) scale(0.11 -0.11)">
       <defs>
        <path id="DejaVuSans-1c" d="M 703 97 
L 703 672 
Q 941 559 1184 500 
Q 1428 441 1663 441 
Q 2288 441 2617 861 
Q 2947 1281 2994 2138 
Q 2813 1869 2534 1725 
Q 2256 1581 1919 1581 
Q 1219 1581 811 2004 
Q 403 2428 403 3163 
Q 403 3881 828 4315 
Q 1253 4750 1959 4750 
Q 2769 4750 3195 4129 
Q 3622 3509 3622 2328 
Q 3622 1225 3098 567 
Q 2575 -91 1691 -91 
Q 1453 -91 1209 -44 
Q 966 3 703 97 
z
M 1959 2075 
Q 2384 2075 2632 2365 
Q 2881 2656 2881 3163 
Q 2881 3666 2632 3958 
Q 2384 4250 1959 4250 
Q 1534 4250 1286 3958 
Q 1038 3666 1038 3163 
Q 1038 2656 1286 2365 
Q 1534 2075 1959 2075 
z
" transform="scale(0.015625)"/>
       </defs>
       <use xlink:href="#DejaVuSans-1c"/>
       <use xlink:href="#DejaVuSans-13" transform="translate(63.625 0)"/>
      </g>
     </g>
    </g>
    <g id="text_8">
     <!-- Angle of incidence $i$ (degrees) -->
     <g style="fill: #111827" transform="translate(137.78 247.676056) scale(0.11 -0.11)">
      <defs>
       <path id="DejaVuSans-24" d="M 2188 4044 
L 1331 1722 
L 3047 1722 
L 2188 4044 
z
M 1831 4666 
L 2547 4666 
L 4325 0 
L 3669 0 
L 3244 1197 
L 1141 1197 
L 716 0 
L 50 0 
L 1831 4666 
z
" transform="scale(0.015625)"/>
       <path id="DejaVuSans-51" d="M 3513 2113 
L 3513 0 
L 2938 0 
L 2938 2094 
Q 2938 2591 2744 2837 
Q 2550 3084 2163 3084 
Q 1697 3084 1428 2787 
Q 1159 2491 1159 1978 
L 1159 0 
L 581 0 
L 581 3500 
L 1159 3500 
L 1159 2956 
Q 1366 3272 1645 3428 
Q 1925 3584 2291 3584 
Q 2894 3584 3203 3211 
Q 3513 2838 3513 2113 
z
" transform="scale(0.015625)"/>
       <path id="DejaVuSans-4a" d="M 2906 1791 
Q 2906 2416 2648 2759 
Q 2391 3103 1925 3103 
Q 1463 3103 1205 2759 
Q 947 2416 947 1791 
Q 947 1169 1205 825 
Q 1463 481 1925 481 
Q 2391 481 2648 825 
Q 2906 1169 2906 1791 
z
M 3481 434 
Q 3481 -459 3084 -895 
Q 2688 -1331 1869 -1331 
Q 1566 -1331 1297 -1286 
Q 1028 -1241 775 -1147 
L 775 -588 
Q 1028 -725 1275 -790 
Q 1522 -856 1778 -856 
Q 2344 -856 2625 -561 
Q 2906 -266 2906 331 
L 2906 616 
Q 2728 306 2450 153 
Q 2172 0 1784 0 
Q 1141 0 747 490 
Q 353 981 353 1791 
Q 353 2603 747 3093 
Q 1141 3584 1784 3584 
Q 2172 3584 2450 3431 
Q 2728 3278 2906 2969 
L 2906 3500 
L 3481 3500 
L 3481 434 
z
" transform="scale(0.015625)"/>
       <path id="DejaVuSans-4f" d="M 603 4863 
L 1178 4863 
L 1178 0 
L 603 0 
L 603 4863 
z
" transform="scale(0.015625)"/>
       <path id="DejaVuSans-48" d="M 3597 1894 
L 3597 1613 
L 953 1613 
Q 991 1019 1311 708 
Q 1631 397 2203 397 
Q 2534 397 2845 478 
Q 3156 559 3463 722 
L 3463 178 
Q 3153 47 2828 -22 
Q 2503 -91 2169 -91 
Q 1331 -91 842 396 
Q 353 884 353 1716 
Q 353 2575 817 3079 
Q 1281 3584 2069 3584 
Q 2775 3584 3186 3129 
Q 3597 2675 3597 1894 
z
M 3022 2063 
Q 3016 2534 2758 2815 
Q 2500 3097 2075 3097 
Q 1594 3097 1305 2825 
Q 1016 2553 972 2059 
L 3022 2063 
z
" transform="scale(0.015625)"/>
       <path id="DejaVuSans-3" transform="scale(0.015625)"/>
       <path id="DejaVuSans-52" d="M 1959 3097 
Q 1497 3097 1228 2736 
Q 959 2375 959 1747 
Q 959 1119 1226 758 
Q 1494 397 1959 397 
Q 2419 397 2687 759 
Q 2956 1122 2956 1747 
Q 2956 2369 2687 2733 
Q 2419 3097 1959 3097 
z
M 1959 3584 
Q 2709 3584 3137 3096 
Q 3566 2609 3566 1747 
Q 3566 888 3137 398 
Q 2709 -91 1959 -91 
Q 1206 -91 779 398 
Q 353 888 353 1747 
Q 353 2609 779 3096 
Q 1206 3584 1959 3584 
z
" transform="scale(0.015625)"/>
       <path id="DejaVuSans-49" d="M 2375 4863 
L 2375 4384 
L 1825 4384 
Q 1516 4384 1395 4259 
Q 1275 4134 1275 3809 
L 1275 3500 
L 2222 3500 
L 2222 3053 
L 1275 3053 
L 1275 0 
L 697 0 
L 697 3053 
L 147 3053 
L 147 3500 
L 697 3500 
L 697 3744 
Q 697 4328 969 4595 
Q 1241 4863 1831 4863 
L 2375 4863 
z
" transform="scale(0.015625)"/>
       <path id="DejaVuSans-4c" d="M 603 3500 
L 1178 3500 
L 1178 0 
L 603 0 
L 603 3500 
z
M 603 4863 
L 1178 4863 
L 1178 4134 
L 603 4134 
L 603 4863 
z
" transform="scale(0.015625)"/>
       <path id="DejaVuSans-46" d="M 3122 3366 
L 3122 2828 
Q 2878 2963 2633 3030 
Q 2388 3097 2138 3097 
Q 1578 3097 1268 2742 
Q 959 2388 959 1747 
Q 959 1106 1268 751 
Q 1578 397 2138 397 
Q 2388 397 2633 464 
Q 2878 531 3122 666 
L 3122 134 
Q 2881 22 2623 -34 
Q 2366 -91 2075 -91 
Q 1284 -91 818 406 
Q 353 903 353 1747 
Q 353 2603 823 3093 
Q 1294 3584 2113 3584 
Q 2378 3584 2631 3529 
Q 2884 3475 3122 3366 
z
" transform="scale(0.015625)"/>
       <path id="DejaVuSans-47" d="M 2906 2969 
L 2906 4863 
L 3481 4863 
L 3481 0 
L 2906 0 
L 2906 525 
Q 2725 213 2448 61 
Q 2172 -91 1784 -91 
Q 1150 -91 751 415 
Q 353 922 353 1747 
Q 353 2572 751 3078 
Q 1150 3584 1784 3584 
Q 2172 3584 2448 3432 
Q 2725 3281 2906 2969 
z
M 947 1747 
Q 947 1113 1208 752 
Q 1469 391 1925 391 
Q 2381 391 2643 752 
Q 2906 1113 2906 1747 
Q 2906 2381 2643 2742 
Q 2381 3103 1925 3103 
Q 1469 3103 1208 2742 
Q 947 2381 947 1747 
z
" transform="scale(0.015625)"/>
       <path id="DejaVuSans-Oblique-4c" d="M 1172 4863 
L 1747 4863 
L 1606 4134 
L 1031 4134 
L 1172 4863 
z
M 909 3500 
L 1484 3500 
L 800 0 
L 225 0 
L 909 3500 
z
" transform="scale(0.015625)"/>
       <path id="DejaVuSans-b" d="M 1984 4856 
Q 1566 4138 1362 3434 
Q 1159 2731 1159 2009 
Q 1159 1288 1364 580 
Q 1569 -128 1984 -844 
L 1484 -844 
Q 1016 -109 783 600 
Q 550 1309 550 2009 
Q 550 2706 781 3412 
Q 1013 4119 1484 4856 
L 1984 4856 
z
" transform="scale(0.015625)"/>
       <path id="DejaVuSans-55" d="M 2631 2963 
Q 2534 3019 2420 3045 
Q 2306 3072 2169 3072 
Q 1681 3072 1420 2755 
Q 1159 2438 1159 1844 
L 1159 0 
L 581 0 
L 581 3500 
L 1159 3500 
L 1159 2956 
Q 1341 3275 1631 3429 
Q 1922 3584 2338 3584 
Q 2397 3584 2469 3576 
Q 2541 3569 2628 3553 
L 2631 2963 
z
" transform="scale(0.015625)"/>
       <path id="DejaVuSans-56" d="M 2834 3397 
L 2834 2853 
Q 2591 2978 2328 3040 
Q 2066 3103 1784 3103 
Q 1356 3103 1142 2972 
Q 928 2841 928 2578 
Q 928 2378 1081 2264 
Q 1234 2150 1697 2047 
L 1894 2003 
Q 2506 1872 2764 1633 
Q 3022 1394 3022 966 
Q 3022 478 2636 193 
Q 2250 -91 1575 -91 
Q 1294 -91 989 -36 
Q 684 19 347 128 
L 347 722 
Q 666 556 975 473 
Q 1284 391 1588 391 
Q 1994 391 2212 530 
Q 2431 669 2431 922 
Q 2431 1156 2273 1281 
Q 2116 1406 1581 1522 
L 1381 1569 
Q 847 1681 609 1914 
Q 372 2147 372 2553 
Q 372 3047 722 3315 
Q 1072 3584 1716 3584 
Q 2034 3584 2315 3537 
Q 2597 3491 2834 3397 
z
" transform="scale(0.015625)"/>
       <path id="DejaVuSans-c" d="M 513 4856 
L 1013 4856 
Q 1481 4119 1714 3412 
Q 1947 2706 1947 2009 
Q 1947 1309 1714 600 
Q 1481 -109 1013 -844 
L 513 -844 
Q 928 -128 1133 580 
Q 1338 1288 1338 2009 
Q 1338 2731 1133 3434 
Q 928 4138 513 4856 
z
" transform="scale(0.015625)"/>
      </defs>
      <use xlink:href="#DejaVuSans-24" transform="translate(0 0.015625)"/>
      <use xlink:href="#DejaVuSans-51" transform="translate(68.408203 0.015625)"/>
      <use xlink:href="#DejaVuSans-4a" transform="translate(131.787109 0.015625)"/>
      <use xlink:href="#DejaVuSans-4f" transform="translate(195.263672 0.015625)"/>
      <use xlink:href="#DejaVuSans-48" transform="translate(223.046875 0.015625)"/>
      <use xlink:href="#DejaVuSans-3" transform="translate(284.570312 0.015625)"/>
      <use xlink:href="#DejaVuSans-52" transform="translate(316.357422 0.015625)"/>
      <use xlink:href="#DejaVuSans-49" transform="translate(377.539062 0.015625)"/>
      <use xlink:href="#DejaVuSans-3" transform="translate(412.744141 0.015625)"/>
      <use xlink:href="#DejaVuSans-4c" transform="translate(444.53125 0.015625)"/>
      <use xlink:href="#DejaVuSans-51" transform="translate(472.314453 0.015625)"/>
      <use xlink:href="#DejaVuSans-46" transform="translate(535.693359 0.015625)"/>
      <use xlink:href="#DejaVuSans-4c" transform="translate(590.673828 0.015625)"/>
      <use xlink:href="#DejaVuSans-47" transform="translate(618.457031 0.015625)"/>
      <use xlink:href="#DejaVuSans-48" transform="translate(681.933594 0.015625)"/>
      <use xlink:href="#DejaVuSans-51" transform="translate(743.457031 0.015625)"/>
      <use xlink:href="#DejaVuSans-46" transform="translate(806.835938 0.015625)"/>
      <use xlink:href="#DejaVuSans-48" transform="translate(861.816406 0.015625)"/>
      <use xlink:href="#DejaVuSans-3" transform="translate(923.339844 0.015625)"/>
      <use xlink:href="#DejaVuSans-Oblique-4c" transform="translate(955.126953 0.015625)"/>
      <use xlink:href="#DejaVuSans-3" transform="translate(982.910156 0.015625)"/>
      <use xlink:href="#DejaVuSans-b" transform="translate(1014.697266 0.015625)"/>
      <use xlink:href="#DejaVuSans-47" transform="translate(1053.710938 0.015625)"/>
      <use xlink:href="#DejaVuSans-48" transform="translate(1117.1875 0.015625)"/>
      <use xlink:href="#DejaVuSans-4a" transform="translate(1178.710938 0.015625)"/>
      <use xlink:href="#DejaVuSans-55" transform="translate(1242.1875 0.015625)"/>
      <use xlink:href="#DejaVuSans-48" transform="translate(1281.300781 0.015625)"/>
      <use xlink:href="#DejaVuSans-48" transform="translate(1342.824219 0.015625)"/>
      <use xlink:href="#DejaVuSans-56" transform="translate(1404.347656 0.015625)"/>
      <use xlink:href="#DejaVuSans-c" transform="translate(1456.447266 0.015625)"/>
     </g>
    </g>
   </g>
   <g id="matplotlib.axis_2">
    <g id="ytick_1">
     <g id="line2d_15">
      <path d="M 48.8 203.236348 
L 391.32 203.236348 
" clip-path="url(#p33e730357b)" style="fill: none; stroke: #e5e7eb; stroke-width: 0.8; stroke-linecap: square"/>
     </g>
     <g id="line2d_16">
      <defs>
       <path id="mff801a73a6" d="M 0 0 
L -3.5 0 
" style="stroke: #374151; stroke-width: 0.8"/>
      </defs>
      <g>
       <use xlink:href="#mff801a73a6" x="48.8" y="203.236348" style="fill: #374151; stroke: #374151; stroke-width: 0.8"/>
      </g>
     </g>
     <g id="text_9">
      <!-- 35 -->
      <g style="fill: #374151" transform="translate(27.8025 207.415059) scale(0.11 -0.11)">
       <use xlink:href="#DejaVuSans-16"/>
       <use xlink:href="#DejaVuSans-18" transform="translate(63.625 0)"/>
      </g>
     </g>
    </g>
    <g id="ytick_2">
     <g id="line2d_17">
      <path d="M 48.8 168.037079 
L 391.32 168.037079 
" clip-path="url(#p33e730357b)" style="fill: none; stroke: #e5e7eb; stroke-width: 0.8; stroke-linecap: square"/>
     </g>
     <g id="line2d_18">
      <g>
       <use xlink:href="#mff801a73a6" x="48.8" y="168.037079" style="fill: #374151; stroke: #374151; stroke-width: 0.8"/>
      </g>
     </g>
     <g id="text_10">
      <!-- 40 -->
      <g style="fill: #374151" transform="translate(27.8025 172.21579) scale(0.11 -0.11)">
       <use xlink:href="#DejaVuSans-17"/>
       <use xlink:href="#DejaVuSans-13" transform="translate(63.625 0)"/>
      </g>
     </g>
    </g>
    <g id="ytick_3">
     <g id="line2d_19">
      <path d="M 48.8 132.837809 
L 391.32 132.837809 
" clip-path="url(#p33e730357b)" style="fill: none; stroke: #e5e7eb; stroke-width: 0.8; stroke-linecap: square"/>
     </g>
     <g id="line2d_20">
      <g>
       <use xlink:href="#mff801a73a6" x="48.8" y="132.837809" style="fill: #374151; stroke: #374151; stroke-width: 0.8"/>
      </g>
     </g>
     <g id="text_11">
      <!-- 45 -->
      <g style="fill: #374151" transform="translate(27.8025 137.01652) scale(0.11 -0.11)">
       <use xlink:href="#DejaVuSans-17"/>
       <use xlink:href="#DejaVuSans-18" transform="translate(63.625 0)"/>
      </g>
     </g>
    </g>
    <g id="ytick_4">
     <g id="line2d_21">
      <path d="M 48.8 97.638539 
L 391.32 97.638539 
" clip-path="url(#p33e730357b)" style="fill: none; stroke: #e5e7eb; stroke-width: 0.8; stroke-linecap: square"/>
     </g>
     <g id="line2d_22">
      <g>
       <use xlink:href="#mff801a73a6" x="48.8" y="97.638539" style="fill: #374151; stroke: #374151; stroke-width: 0.8"/>
      </g>
     </g>
     <g id="text_12">
      <!-- 50 -->
      <g style="fill: #374151" transform="translate(27.8025 101.81725) scale(0.11 -0.11)">
       <use xlink:href="#DejaVuSans-18"/>
       <use xlink:href="#DejaVuSans-13" transform="translate(63.625 0)"/>
      </g>
     </g>
    </g>
    <g id="ytick_5">
     <g id="line2d_23">
      <path d="M 48.8 62.43927 
L 391.32 62.43927 
" clip-path="url(#p33e730357b)" style="fill: none; stroke: #e5e7eb; stroke-width: 0.8; stroke-linecap: square"/>
     </g>
     <g id="line2d_24">
      <g>
       <use xlink:href="#mff801a73a6" x="48.8" y="62.43927" style="fill: #374151; stroke: #374151; stroke-width: 0.8"/>
      </g>
     </g>
     <g id="text_13">
      <!-- 55 -->
      <g style="fill: #374151" transform="translate(27.8025 66.617981) scale(0.11 -0.11)">
       <use xlink:href="#DejaVuSans-18"/>
       <use xlink:href="#DejaVuSans-18" transform="translate(63.625 0)"/>
      </g>
     </g>
    </g>
    <g id="ytick_6">
     <g id="line2d_25">
      <path d="M 48.8 27.24 
L 391.32 27.24 
" clip-path="url(#p33e730357b)" style="fill: none; stroke: #e5e7eb; stroke-width: 0.8; stroke-linecap: square"/>
     </g>
     <g id="line2d_26">
      <g>
       <use xlink:href="#mff801a73a6" x="48.8" y="27.24" style="fill: #374151; stroke: #374151; stroke-width: 0.8"/>
      </g>
     </g>
     <g id="text_14">
      <!-- 60 -->
      <g style="fill: #374151" transform="translate(27.8025 31.418711) scale(0.11 -0.11)">
       <use xlink:href="#DejaVuSans-19"/>
       <use xlink:href="#DejaVuSans-13" transform="translate(63.625 0)"/>
      </g>
     </g>
    </g>
    <g id="text_15">
     <!-- Angle of deviation $\delta$ (degrees) -->
     <g style="fill: #111827" transform="translate(21.159922 205.603028) rotate(-90) scale(0.11 -0.11)">
      <defs>
       <path id="DejaVuSans-59" d="M 191 3500 
L 800 3500 
L 1894 563 
L 2988 3500 
L 3597 3500 
L 2284 0 
L 1503 0 
L 191 3500 
z
" transform="scale(0.015625)"/>
       <path id="DejaVuSans-44" d="M 2194 1759 
Q 1497 1759 1228 1600 
Q 959 1441 959 1056 
Q 959 750 1161 570 
Q 1363 391 1709 391 
Q 2188 391 2477 730 
Q 2766 1069 2766 1631 
L 2766 1759 
L 2194 1759 
z
M 3341 1997 
L 3341 0 
L 2766 0 
L 2766 531 
Q 2569 213 2275 61 
Q 1981 -91 1556 -91 
Q 1019 -91 701 211 
Q 384 513 384 1019 
Q 384 1609 779 1909 
Q 1175 2209 1959 2209 
L 2766 2209 
L 2766 2266 
Q 2766 2663 2505 2880 
Q 2244 3097 1772 3097 
Q 1472 3097 1187 3025 
Q 903 2953 641 2809 
L 641 3341 
Q 956 3463 1253 3523 
Q 1550 3584 1831 3584 
Q 2591 3584 2966 3190 
Q 3341 2797 3341 1997 
z
" transform="scale(0.015625)"/>
       <path id="DejaVuSans-57" d="M 1172 4494 
L 1172 3500 
L 2356 3500 
L 2356 3053 
L 1172 3053 
L 1172 1153 
Q 1172 725 1289 603 
Q 1406 481 1766 481 
L 2356 481 
L 2356 0 
L 1766 0 
Q 1100 0 847 248 
Q 594 497 594 1153 
L 594 3053 
L 172 3053 
L 172 3500 
L 594 3500 
L 594 4494 
L 1172 4494 
z
" transform="scale(0.015625)"/>
       <path id="DejaVuSans-Oblique-348" d="M 3472 4053 
Q 3197 4272 2450 4272 
Q 1659 4272 1588 3906 
Q 1531 3619 2328 3469 
Q 2953 3353 3253 3003 
Q 3616 2581 3447 1716 
Q 3284 888 2763 400 
Q 2238 -91 1488 -91 
Q 741 -91 406 400 
Q 72 888 241 1747 
Q 363 2384 891 2900 
Q 1097 3100 1353 3213 
Q 913 3459 1000 3900 
Q 1166 4750 2544 4750 
Q 3234 4750 3566 4531 
L 3472 4053 
z
M 1753 3056 
Q 1525 2966 1306 2738 
Q 969 2384 847 1747 
Q 722 1113 919 756 
Q 1119 397 1584 397 
Q 2044 397 2381 759 
Q 2722 1122 2838 1716 
Q 2956 2338 2731 2638 
Q 2491 2959 2103 2994 
Q 1906 3013 1753 3056 
z
" transform="scale(0.015625)"/>
      </defs>
      <use xlink:href="#DejaVuSans-24" transform="translate(0 0.015625)"/>
      <use xlink:href="#DejaVuSans-51" transform="translate(68.408203 0.015625)"/>
      <use xlink:href="#DejaVuSans-4a" transform="translate(131.787109 0.015625)"/>
      <use xlink:href="#DejaVuSans-4f" transform="translate(195.263672 0.015625)"/>
      <use xlink:href="#DejaVuSans-48" transform="translate(223.046875 0.015625)"/>
      <use xlink:href="#DejaVuSans-3" transform="translate(284.570312 0.015625)"/>
      <use xlink:href="#DejaVuSans-52" transform="translate(316.357422 0.015625)"/>
      <use xlink:href="#DejaVuSans-49" transform="translate(377.539062 0.015625)"/>
      <use xlink:href="#DejaVuSans-3" transform="translate(412.744141 0.015625)"/>
      <use xlink:href="#DejaVuSans-47" transform="translate(444.53125 0.015625)"/>
      <use xlink:href="#DejaVuSans-48" transform="translate(508.007812 0.015625)"/>
      <use xlink:href="#DejaVuSans-59" transform="translate(569.53125 0.015625)"/>
      <use xlink:href="#DejaVuSans-4c" transform="translate(628.710938 0.015625)"/>
      <use xlink:href="#DejaVuSans-44" transform="translate(656.494141 0.015625)"/>
      <use xlink:href="#DejaVuSans-57" transform="translate(717.773438 0.015625)"/>
      <use xlink:href="#DejaVuSans-4c" transform="translate(756.982422 0.015625)"/>
      <use xlink:href="#DejaVuSans-52" transform="translate(784.765625 0.015625)"/>
      <use xlink:href="#DejaVuSans-51" transform="translate(845.947266 0.015625)"/>
      <use xlink:href="#DejaVuSans-3" transform="translate(909.326172 0.015625)"/>
      <use xlink:href="#DejaVuSans-Oblique-348" transform="translate(941.113281 0.015625)"/>
      <use xlink:href="#DejaVuSans-3" transform="translate(1002.294922 0.015625)"/>
      <use xlink:href="#DejaVuSans-b" transform="translate(1034.082031 0.015625)"/>
      <use xlink:href="#DejaVuSans-47" transform="translate(1073.095703 0.015625)"/>
      <use xlink:href="#DejaVuSans-48" transform="translate(1136.572266 0.015625)"/>
      <use xlink:href="#DejaVuSans-4a" transform="translate(1198.095703 0.015625)"/>
      <use xlink:href="#DejaVuSans-55" transform="translate(1261.572266 0.015625)"/>
      <use xlink:href="#DejaVuSans-48" transform="translate(1300.685547 0.015625)"/>
      <use xlink:href="#DejaVuSans-48" transform="translate(1362.208984 0.015625)"/>
      <use xlink:href="#DejaVuSans-56" transform="translate(1423.732422 0.015625)"/>
      <use xlink:href="#DejaVuSans-c" transform="translate(1475.832031 0.015625)"/>
     </g>
    </g>
   </g>
   <g id="line2d_27">
    <path d="M 59.50375 118.054116 
L 75.559375 148.818277 
L 91.615 165.784325 
L 107.670625 176.273708 
L 123.72625 182.820772 
L 139.781875 186.481496 
L 155.8375 187.819068 
L 171.893125 187.326278 
L 187.94875 185.073525 
L 204.004375 181.272004 
L 220.06 175.921715 
L 236.115625 169.163455 
L 252.17125 160.997225 
L 268.226875 151.352625 
L 284.2825 140.300054 
L 300.338125 127.769114 
L 316.39375 113.689406 
L 332.449375 98.060931 
L 348.505 80.954086 
L 364.560625 62.228074 
L 380.61625 41.882896 
" clip-path="url(#p33e730357b)" style="fill: none; stroke: #2563eb; stroke-width: 2.4; stroke-linecap: square"/>
   </g>
   <g id="patch_3">
    <path d="M 48.8 217.316056 
L 48.8 27.24 
" style="fill: none; stroke: #374151; stroke-width: 0.8; stroke-linejoin: miter; stroke-linecap: square"/>
   </g>
   <g id="patch_4">
    <path d="M 48.8 217.316056 
L 391.32 217.316056 
" style="fill: none; stroke: #374151; stroke-width: 0.8; stroke-linejoin: miter; stroke-linecap: square"/>
   </g>
   <g id="text_16">
    <!-- minimum deviation -->
    <g style="fill: #dc2626" transform="translate(171.048625 157.889467) scale(0.1 -0.1)">
     <defs>
      <path id="DejaVuSans-50" d="M 3328 2828 
Q 3544 3216 3844 3400 
Q 4144 3584 4550 3584 
Q 5097 3584 5394 3201 
Q 5691 2819 5691 2113 
L 5691 0 
L 5113 0 
L 5113 2094 
Q 5113 2597 4934 2840 
Q 4756 3084 4391 3084 
Q 3944 3084 3684 2787 
Q 3425 2491 3425 1978 
L 3425 0 
L 2847 0 
L 2847 2094 
Q 2847 2600 2669 2842 
Q 2491 3084 2119 3084 
Q 1678 3084 1418 2786 
Q 1159 2488 1159 1978 
L 1159 0 
L 581 0 
L 581 3500 
L 1159 3500 
L 1159 2956 
Q 1356 3278 1631 3431 
Q 1906 3584 2284 3584 
Q 2666 3584 2933 3390 
Q 3200 3197 3328 2828 
z
" transform="scale(0.015625)"/>
      <path id="DejaVuSans-58" d="M 544 1381 
L 544 3500 
L 1119 3500 
L 1119 1403 
Q 1119 906 1312 657 
Q 1506 409 1894 409 
Q 2359 409 2629 706 
Q 2900 1003 2900 1516 
L 2900 3500 
L 3475 3500 
L 3475 0 
L 2900 0 
L 2900 538 
Q 2691 219 2414 64 
Q 2138 -91 1772 -91 
Q 1169 -91 856 284 
Q 544 659 544 1381 
z
M 1991 3584 
L 1991 3584 
z
" transform="scale(0.015625)"/>
     </defs>
     <use xlink:href="#DejaVuSans-50"/>
     <use xlink:href="#DejaVuSans-4c" transform="translate(97.40625 0)"/>
     <use xlink:href="#DejaVuSans-51" transform="translate(125.1875 0)"/>
     <use xlink:href="#DejaVuSans-4c" transform="translate(188.5625 0)"/>
     <use xlink:href="#DejaVuSans-50" transform="translate(216.34375 0)"/>
     <use xlink:href="#DejaVuSans-58" transform="translate(313.75 0)"/>
     <use xlink:href="#DejaVuSans-50" transform="translate(377.125 0)"/>
     <use xlink:href="#DejaVuSans-3" transform="translate(474.53125 0)"/>
     <use xlink:href="#DejaVuSans-47" transform="translate(506.3125 0)"/>
     <use xlink:href="#DejaVuSans-48" transform="translate(569.796875 0)"/>
     <use xlink:href="#DejaVuSans-59" transform="translate(631.328125 0)"/>
     <use xlink:href="#DejaVuSans-4c" transform="translate(690.515625 0)"/>
     <use xlink:href="#DejaVuSans-44" transform="translate(718.296875 0)"/>
     <use xlink:href="#DejaVuSans-57" transform="translate(779.578125 0)"/>
     <use xlink:href="#DejaVuSans-4c" transform="translate(818.78125 0)"/>
     <use xlink:href="#DejaVuSans-52" transform="translate(846.5625 0)"/>
     <use xlink:href="#DejaVuSans-51" transform="translate(907.75 0)"/>
    </g>
   </g>
   <g id="text_17">
    <!-- How the deviation changes as you turn the prism -->
    <g style="fill: #111827" transform="translate(71.866563 21.24) scale(0.12 -0.12)">
     <defs>
      <path id="DejaVuSans-2b" d="M 628 4666 
L 1259 4666 
L 1259 2753 
L 3553 2753 
L 3553 4666 
L 4184 4666 
L 4184 0 
L 3553 0 
L 3553 2222 
L 1259 2222 
L 1259 0 
L 628 0 
L 628 4666 
z
" transform="scale(0.015625)"/>
      <path id="DejaVuSans-5a" d="M 269 3500 
L 844 3500 
L 1563 769 
L 2278 3500 
L 2956 3500 
L 3675 769 
L 4391 3500 
L 4966 3500 
L 4050 0 
L 3372 0 
L 2619 2869 
L 1863 0 
L 1184 0 
L 269 3500 
z
" transform="scale(0.015625)"/>
      <path id="DejaVuSans-4b" d="M 3513 2113 
L 3513 0 
L 2938 0 
L 2938 2094 
Q 2938 2591 2744 2837 
Q 2550 3084 2163 3084 
Q 1697 3084 1428 2787 
Q 1159 2491 1159 1978 
L 1159 0 
L 581 0 
L 581 4863 
L 1159 4863 
L 1159 2956 
Q 1366 3272 1645 3428 
Q 1925 3584 2291 3584 
Q 2894 3584 3203 3211 
Q 3513 2838 3513 2113 
z
" transform="scale(0.015625)"/>
      <path id="DejaVuSans-5c" d="M 2059 -325 
Q 1816 -950 1584 -1140 
Q 1353 -1331 966 -1331 
L 506 -1331 
L 506 -850 
L 844 -850 
Q 1081 -850 1212 -737 
Q 1344 -625 1503 -206 
L 1606 56 
L 191 3500 
L 800 3500 
L 1894 763 
L 2988 3500 
L 3597 3500 
L 2059 -325 
z
" transform="scale(0.015625)"/>
      <path id="DejaVuSans-53" d="M 1159 525 
L 1159 -1331 
L 581 -1331 
L 581 3500 
L 1159 3500 
L 1159 2969 
Q 1341 3281 1617 3432 
Q 1894 3584 2278 3584 
Q 2916 3584 3314 3078 
Q 3713 2572 3713 1747 
Q 3713 922 3314 415 
Q 2916 -91 2278 -91 
Q 1894 -91 1617 61 
Q 1341 213 1159 525 
z
M 3116 1747 
Q 3116 2381 2855 2742 
Q 2594 3103 2138 3103 
Q 1681 3103 1420 2742 
Q 1159 2381 1159 1747 
Q 1159 1113 1420 752 
Q 1681 391 2138 391 
Q 2594 391 2855 752 
Q 3116 1113 3116 1747 
z
" transform="scale(0.015625)"/>
     </defs>
     <use xlink:href="#DejaVuSans-2b"/>
     <use xlink:href="#DejaVuSans-52" transform="translate(75.203125 0)"/>
     <use xlink:href="#DejaVuSans-5a" transform="translate(136.390625 0)"/>
     <use xlink:href="#DejaVuSans-3" transform="translate(218.171875 0)"/>
     <use xlink:href="#DejaVuSans-57" transform="translate(249.953125 0)"/>
     <use xlink:href="#DejaVuSans-4b" transform="translate(289.15625 0)"/>
     <use xlink:href="#DejaVuSans-48" transform="translate(352.53125 0)"/>
     <use xlink:href="#DejaVuSans-3" transform="translate(414.0625 0)"/>
     <use xlink:href="#DejaVuSans-47" transform="translate(445.84375 0)"/>
     <use xlink:href="#DejaVuSans-48" transform="translate(509.328125 0)"/>
     <use xlink:href="#DejaVuSans-59" transform="translate(570.859375 0)"/>
     <use xlink:href="#DejaVuSans-4c" transform="translate(630.046875 0)"/>
     <use xlink:href="#DejaVuSans-44" transform="translate(657.828125 0)"/>
     <use xlink:href="#DejaVuSans-57" transform="translate(719.109375 0)"/>
     <use xlink:href="#DejaVuSans-4c" transform="translate(758.3125 0)"/>
     <use xlink:href="#DejaVuSans-52" transform="translate(786.09375 0)"/>
     <use xlink:href="#DejaVuSans-51" transform="translate(847.28125 0)"/>
     <use xlink:href="#DejaVuSans-3" transform="translate(910.65625 0)"/>
     <use xlink:href="#DejaVuSans-46" transform="translate(942.4375 0)"/>
     <use xlink:href="#DejaVuSans-4b" transform="translate(997.421875 0)"/>
     <use xlink:href="#DejaVuSans-44" transform="translate(1060.796875 0)"/>
     <use xlink:href="#DejaVuSans-51" transform="translate(1122.078125 0)"/>
     <use xlink:href="#DejaVuSans-4a" transform="translate(1185.453125 0)"/>
     <use xlink:href="#DejaVuSans-48" transform="translate(1248.9375 0)"/>
     <use xlink:href="#DejaVuSans-56" transform="translate(1310.46875 0)"/>
     <use xlink:href="#DejaVuSans-3" transform="translate(1362.5625 0)"/>
     <use xlink:href="#DejaVuSans-44" transform="translate(1394.34375 0)"/>
     <use xlink:href="#DejaVuSans-56" transform="translate(1455.625 0)"/>
     <use xlink:href="#DejaVuSans-3" transform="translate(1507.71875 0)"/>
     <use xlink:href="#DejaVuSans-5c" transform="translate(1539.5 0)"/>
     <use xlink:href="#DejaVuSans-52" transform="translate(1598.6875 0)"/>
     <use xlink:href="#DejaVuSans-58" transform="translate(1659.875 0)"/>
     <use xlink:href="#DejaVuSans-3" transform="translate(1723.25 0)"/>
     <use xlink:href="#DejaVuSans-57" transform="translate(1755.03125 0)"/>
     <use xlink:href="#DejaVuSans-58" transform="translate(1794.234375 0)"/>
     <use xlink:href="#DejaVuSans-55" transform="translate(1857.609375 0)"/>
     <use xlink:href="#DejaVuSans-51" transform="translate(1896.96875 0)"/>
     <use xlink:href="#DejaVuSans-3" transform="translate(1960.34375 0)"/>
     <use xlink:href="#DejaVuSans-57" transform="translate(1992.125 0)"/>
     <use xlink:href="#DejaVuSans-4b" transform="translate(2031.328125 0)"/>
     <use xlink:href="#DejaVuSans-48" transform="translate(2094.703125 0)"/>
     <use xlink:href="#DejaVuSans-3" transform="translate(2156.234375 0)"/>
     <use xlink:href="#DejaVuSans-53" transform="translate(2188.015625 0)"/>
     <use xlink:href="#DejaVuSans-55" transform="translate(2251.5 0)"/>
     <use xlink:href="#DejaVuSans-4c" transform="translate(2292.609375 0)"/>
     <use xlink:href="#DejaVuSans-56" transform="translate(2320.390625 0)"/>
     <use xlink:href="#DejaVuSans-50" transform="translate(2372.484375 0)"/>
    </g>
   </g>
   <g id="line2d_28">
    <defs>
     <path id="mc3788849ab" d="M 0 3.5 
C 0.928211 3.5 1.81853 3.131218 2.474874 2.474874 
C 3.131218 1.81853 3.5 0.928211 3.5 0 
C 3.5 -0.928211 3.131218 -1.81853 2.474874 -2.474874 
C 1.81853 -3.131218 0.928211 -3.5 0 -3.5 
C -0.928211 -3.5 -1.81853 -3.131218 -2.474874 -2.474874 
C -3.131218 -1.81853 -3.5 -0.928211 -3.5 0 
C -3.5 0.928211 -3.131218 1.81853 -2.474874 2.474874 
C -1.81853 3.131218 -0.928211 3.5 0 3.5 
z
" style="stroke: #dc2626"/>
    </defs>
    <g clip-path="url(#p33e730357b)">
     <use xlink:href="#mc3788849ab" x="159.048625" y="187.889467" style="fill: #dc2626; stroke: #dc2626"/>
    </g>
   </g>
   <g id="legend_1">
    <g id="line2d_29">
     <path d="M 120.26 260.828225 
L 130.26 260.828225 
L 140.26 260.828225 
" style="fill: none; stroke: #2563eb; stroke-width: 2.4; stroke-linecap: square"/>
    </g>
    <g id="text_18">
     <!-- equilateral prism, $A = 60^\circ$, $n = 1.5$ -->
     <g transform="translate(148.26 264.328225) scale(0.1 -0.1)">
      <defs>
       <path id="DejaVuSans-54" d="M 947 1747 
Q 947 1113 1208 752 
Q 1469 391 1925 391 
Q 2381 391 2643 752 
Q 2906 1113 2906 1747 
Q 2906 2381 2643 2742 
Q 2381 3103 1925 3103 
Q 1469 3103 1208 2742 
Q 947 2381 947 1747 
z
M 2906 525 
Q 2725 213 2448 61 
Q 2172 -91 1784 -91 
Q 1150 -91 751 415 
Q 353 922 353 1747 
Q 353 2572 751 3078 
Q 1150 3584 1784 3584 
Q 2172 3584 2448 3432 
Q 2725 3281 2906 2969 
L 2906 3500 
L 3481 3500 
L 3481 -1331 
L 2906 -1331 
L 2906 525 
z
" transform="scale(0.015625)"/>
       <path id="DejaVuSans-f" d="M 750 794 
L 1409 794 
L 1409 256 
L 897 -744 
L 494 -744 
L 750 256 
L 750 794 
z
" transform="scale(0.015625)"/>
       <path id="DejaVuSans-Oblique-24" d="M 2356 4666 
L 3072 4666 
L 3938 0 
L 3278 0 
L 3084 1197 
L 984 1197 
L 325 0 
L -341 0 
L 2356 4666 
z
M 2584 4044 
L 1275 1722 
L 2988 1722 
L 2584 4044 
z
" transform="scale(0.015625)"/>
       <path id="DejaVuSans-20" d="M 678 2906 
L 4684 2906 
L 4684 2381 
L 678 2381 
L 678 2906 
z
M 678 1631 
L 4684 1631 
L 4684 1100 
L 678 1100 
L 678 1631 
z
" transform="scale(0.015625)"/>
       <path id="DejaVuSans-ca2" d="M 2003 2603 
Q 1753 2603 1581 2429 
Q 1409 2256 1409 2006 
Q 1409 1759 1581 1589 
Q 1753 1419 2003 1419 
Q 2253 1419 2425 1589 
Q 2597 1759 2597 2006 
Q 2597 2253 2423 2428 
Q 2250 2603 2003 2603 
z
M 2003 3006 
Q 2203 3006 2387 2929 
Q 2572 2853 2706 2709 
Q 2850 2569 2922 2390 
Q 2994 2212 2994 2006 
Q 2994 1594 2705 1308 
Q 2416 1022 1997 1022 
Q 1575 1022 1293 1303 
Q 1012 1584 1012 2006 
Q 1012 2425 1299 2715 
Q 1587 3006 2003 3006 
z
" transform="scale(0.015625)"/>
       <path id="DejaVuSans-Oblique-51" d="M 3566 2113 
L 3156 0 
L 2578 0 
L 2988 2091 
Q 3016 2238 3031 2350 
Q 3047 2463 3047 2528 
Q 3047 2791 2881 2937 
Q 2716 3084 2419 3084 
Q 1956 3084 1622 2776 
Q 1288 2469 1184 1941 
L 800 0 
L 225 0 
L 903 3500 
L 1478 3500 
L 1363 2950 
Q 1603 3253 1940 3418 
Q 2278 3584 2650 3584 
Q 3113 3584 3367 3334 
Q 3622 3084 3622 2631 
Q 3622 2519 3608 2391 
Q 3594 2263 3566 2113 
z
" transform="scale(0.015625)"/>
       <path id="DejaVuSans-14" d="M 794 531 
L 1825 531 
L 1825 4091 
L 703 3866 
L 703 4441 
L 1819 4666 
L 2450 4666 
L 2450 531 
L 3481 531 
L 3481 0 
L 794 0 
L 794 531 
z
" transform="scale(0.015625)"/>
       <path id="DejaVuSans-11" d="M 684 794 
L 1344 794 
L 1344 0 
L 684 0 
L 684 794 
z
" transform="scale(0.015625)"/>
      </defs>
      <use xlink:href="#DejaVuSans-48" transform="translate(0 0.015625)"/>
      <use xlink:href="#DejaVuSans-54" transform="translate(61.523438 0.015625)"/>
      <use xlink:href="#DejaVuSans-58" transform="translate(125 0.015625)"/>
      <use xlink:href="#DejaVuSans-4c" transform="translate(188.378906 0.015625)"/>
      <use xlink:href="#DejaVuSans-4f" transform="translate(216.162109 0.015625)"/>
      <use xlink:href="#DejaVuSans-44" transform="translate(243.945312 0.015625)"/>
      <use xlink:href="#DejaVuSans-57" transform="translate(305.224609 0.015625)"/>
      <use xlink:href="#DejaVuSans-48" transform="translate(344.433594 0.015625)"/>
      <use xlink:href="#DejaVuSans-55" transform="translate(405.957031 0.015625)"/>
      <use xlink:href="#DejaVuSans-44" transform="translate(447.070312 0.015625)"/>
      <use xlink:href="#DejaVuSans-4f" transform="translate(508.349609 0.015625)"/>
      <use xlink:href="#DejaVuSans-3" transform="translate(536.132812 0.015625)"/>
      <use xlink:href="#DejaVuSans-53" transform="translate(567.919922 0.015625)"/>
      <use xlink:href="#DejaVuSans-55" transform="translate(631.396484 0.015625)"/>
      <use xlink:href="#DejaVuSans-4c" transform="translate(672.509766 0.015625)"/>
      <use xlink:href="#DejaVuSans-56" transform="translate(700.292969 0.015625)"/>
      <use xlink:href="#DejaVuSans-50" transform="translate(752.392578 0.015625)"/>
      <use xlink:href="#DejaVuSans-f" transform="translate(849.804688 0.015625)"/>
      <use xlink:href="#DejaVuSans-3" transform="translate(881.591797 0.015625)"/>
      <use xlink:href="#DejaVuSans-Oblique-24" transform="translate(913.378906 0.015625)"/>
      <use xlink:href="#DejaVuSans-20" transform="translate(1001.269531 0.015625)"/>
      <use xlink:href="#DejaVuSans-19" transform="translate(1104.541016 0.015625)"/>
      <use xlink:href="#DejaVuSans-13" transform="translate(1168.164062 0.015625)"/>
      <use xlink:href="#DejaVuSans-ca2" transform="translate(1246.381836 41.315625) scale(0.7)"/>
      <use xlink:href="#DejaVuSans-f" transform="translate(1306.572266 0.015625)"/>
      <use xlink:href="#DejaVuSans-3" transform="translate(1338.359375 0.015625)"/>
      <use xlink:href="#DejaVuSans-Oblique-51" transform="translate(1370.146484 0.015625)"/>
      <use xlink:href="#DejaVuSans-20" transform="translate(1453.007812 0.015625)"/>
      <use xlink:href="#DejaVuSans-14" transform="translate(1556.279297 0.015625)"/>
      <use xlink:href="#DejaVuSans-11" transform="translate(1619.902344 0.015625)"/>
      <use xlink:href="#DejaVuSans-18" transform="translate(1651.689453 0.015625)"/>
     </g>
    </g>
   </g>
  </g>
 </g>
 <defs>
  <clipPath id="p33e730357b">
   <rect x="48.8" y="27.24" width="342.52" height="190.076056"/>
  </clipPath>
 </defs>
</svg>
